#N canvas 78 32 948 690 10;
#X obj 42 53 inlet;
#X obj 31 570 outlet;
#X obj 183 569 outlet;
#X obj 341 468 prepend set;
#X obj 341 491 send13 nowhere;
#X msg 246 221 destroy;
#X obj 249 468 prepend send;
#X obj 169 274 prepend /free;
#X obj 680 172 tgl 15 0 empty empty empty 0 -6 0 8 -262144 -1 -1 0
1;
#X obj 643 197 spigot;
#X obj 249 523 spigot;
#X obj 285 500 tgl 15 0 empty empty empty 0 -6 0 8 -262144 -1 -1 0
1;
#X obj 143 509 prepend server;
#X obj 311 436 t a a;
#X obj 222 25 print JFont_doesnt_understand;
#X obj 249 548 print JFont_snd;
#X obj 643 222 print JFont_rcv;
#X text 579 40 required patcher args:;
#X text 578 56 1 = (symbol) logical name;
#X text 578 73 2 = (symbol) type face;
#X text 578 114 optional patcher args;
#X text 578 131 4 = (int) style;
#X text 578 88 3 = (int) size;
#X text 460 371 style is an either 0 (plain) \, 1 (bold) \, 2 (italic)
or 3 (bold+italic);
#X obj 211 193 t b b;
#X obj 170 248 symbol \$1;
#X obj 473 237 symbol ];
#X obj 430 209 t b;
#X obj 474 261 prepend /local \$1 [ /new java.awt.Font \$2 \$4 \$3
;
#X obj 42 80 route osc create destroy server configure;
#X obj 107 569 outlet;
#X obj 78 517 t b b;
#X msg 77 541 configure;
#X text 578 18 v0.1 \, sciss 29-mar-06;
#X connect 0 0 9 0;
#X connect 0 0 29 0;
#X connect 3 0 4 0;
#X connect 5 0 1 0;
#X connect 6 0 4 0;
#X connect 6 0 10 0;
#X connect 7 0 6 0;
#X connect 8 0 9 1;
#X connect 9 0 16 0;
#X connect 10 0 15 0;
#X connect 11 0 10 1;
#X connect 12 0 1 0;
#X connect 13 0 12 0;
#X connect 13 1 3 0;
#X connect 24 0 25 0;
#X connect 24 1 5 0;
#X connect 25 0 7 0;
#X connect 26 0 28 0;
#X connect 27 0 26 0;
#X connect 28 0 6 0;
#X connect 29 0 2 0;
#X connect 29 1 27 0;
#X connect 29 2 24 0;
#X connect 29 3 13 0;
#X connect 29 4 31 0;
#X connect 29 5 14 0;
#X connect 31 0 32 0;
#X connect 31 1 30 0;
#X connect 32 0 1 0;
