#N canvas 0 22 1015 751 10;
#X obj 20 11 inlet;
#X obj 61 668 outlet;
#X obj 262 667 outlet;
#X obj 365 510 prepend set;
#X obj 365 533 send13 nowhere;
#X msg 358 277 destroy;
#X obj 273 510 prepend send;
#X obj 49 455 prepend /set;
#X obj 189 175 prepend visible;
#X obj 274 458 prepend /method;
#X obj 193 316 prepend /free;
#X obj 187 200 prepend enabled;
#X obj 472 458 prepend /get;
#X obj 704 214 tgl 15 0 empty empty empty 0 -6 0 8 -262144 -1 -1 0
1;
#X obj 667 239 spigot;
#X obj 273 565 spigot;
#X obj 309 542 tgl 15 0 empty empty empty 0 -6 0 8 -262144 -1 -1 0
1;
#X obj 61 550 prepend create;
#X obj 667 264 print JView_rcv;
#X obj 166 551 prepend server;
#X obj 433 368 prepend add;
#X obj 433 391 prepend;
#X obj 273 590 print JView_snd;
#X obj 336 479 t a a;
#X obj 481 244 t b b a b;
#X obj 308 168 prepend font;
#X obj 322 368 prepend remove;
#X obj 322 393 prepend;
#X obj 42 178 prepend setSize;
#X obj 40 204 prepend setLocation;
#X obj 41 231 prepend setBounds;
#X obj 77 81 route size location bounds visible enabled font border
tooltip alignx aligny minsize maxsize prefsize;
#X obj 165 666 outlet;
#X obj 134 617 t b b;
#X msg 133 640 configure;
#X obj 307 214 prepend border;
#X obj 426 146 prepend toolTipText;
#X obj 426 173 prepend alignmentX;
#X obj 427 195 prepend alignmentY;
#X obj 572 167 prepend minimumSize;
#X obj 572 123 unpack 0 0;
#X obj 713 123 unpack 0 0;
#X obj 853 123 unpack 0 0;
#X obj 713 167 prepend maximumSize;
#X obj 853 167 prepend preferredSize;
#X obj 723 661 outlet;
#X obj 237 10 inlet;
#X obj 572 145 swing.prMakeDim;
#X obj 713 145 swing.prMakeDim;
#X obj 853 145 swing.prMakeDim;
#X obj 433 345 swing.prMakeRef;
#X obj 323 345 swing.prMakeRef;
#X obj 307 189 swing.prMakeRef;
#X obj 309 145 swing.prMakeRef;
#X msg 42 259 repaint;
#X obj 49 432 prepend \$1-view;
#X obj 184 431 prepend \$1-view;
#X obj 472 434 prepend \$1-view;
#X obj 61 526 symbol \$1-view;
#X obj 680 363 prepend /local \$1-view;
#X obj 680 320 symbol \$2;
#X obj 324 321 symbol \$1-view;
#X obj 434 321 symbol \$1-view;
#X obj 195 291 symbol \$1-view;
#X obj 466 53 print JComponent_doesnt_understand;
#X obj 317 9 route set send;
#X msg 680 342 list [ /new \$1 ];
#X text 763 60 v0.1 \, sciss 25-apr-06;
#X obj 41 36 route osc set get group remove create destroy server configure
refresh;
#X obj 553 244 t b a b;
#X obj 553 383 prepend remove;
#X obj 553 408 prepend;
#X obj 554 360 swing.prMakeRef;
#X obj 555 336 symbol \$1-view;
#X obj 554 290 spigot 0;
#X msg 604 268 1;
#X msg 635 268 0;
#X obj 200 239 t b b b b b;
#X obj 555 312 t a b;
#X connect 0 0 14 0;
#X connect 0 0 68 0;
#X connect 3 0 4 0;
#X connect 5 0 1 0;
#X connect 6 0 4 0;
#X connect 6 0 15 0;
#X connect 7 0 6 0;
#X connect 8 0 55 0;
#X connect 9 0 6 0;
#X connect 10 0 6 0;
#X connect 11 0 55 0;
#X connect 12 0 6 0;
#X connect 13 0 14 1;
#X connect 14 0 18 0;
#X connect 15 0 22 0;
#X connect 16 0 15 1;
#X connect 17 0 1 0;
#X connect 19 0 1 0;
#X connect 20 0 21 0;
#X connect 21 0 9 0;
#X connect 23 0 19 0;
#X connect 23 1 3 0;
#X connect 24 0 58 0;
#X connect 24 1 62 0;
#X connect 24 2 21 1;
#X connect 24 2 27 1;
#X connect 24 3 60 0;
#X connect 25 0 55 0;
#X connect 26 0 27 0;
#X connect 27 0 9 0;
#X connect 28 0 56 0;
#X connect 29 0 56 0;
#X connect 30 0 56 0;
#X connect 31 0 28 0;
#X connect 31 1 29 0;
#X connect 31 2 30 0;
#X connect 31 3 8 0;
#X connect 31 4 11 0;
#X connect 31 5 53 0;
#X connect 31 6 52 0;
#X connect 31 7 36 0;
#X connect 31 8 37 0;
#X connect 31 9 38 0;
#X connect 31 10 40 0;
#X connect 31 11 41 0;
#X connect 31 12 42 0;
#X connect 31 13 45 0;
#X connect 33 0 34 0;
#X connect 33 1 32 0;
#X connect 34 0 1 0;
#X connect 35 0 55 0;
#X connect 36 0 55 0;
#X connect 37 0 55 0;
#X connect 38 0 55 0;
#X connect 39 0 55 0;
#X connect 40 0 47 0;
#X connect 40 1 47 1;
#X connect 41 0 48 0;
#X connect 41 1 48 1;
#X connect 42 0 49 0;
#X connect 42 1 49 1;
#X connect 43 0 55 0;
#X connect 44 0 55 0;
#X connect 46 0 65 0;
#X connect 47 0 39 0;
#X connect 48 0 43 0;
#X connect 49 0 44 0;
#X connect 50 0 20 0;
#X connect 51 0 26 0;
#X connect 52 0 35 0;
#X connect 53 0 25 0;
#X connect 54 0 56 0;
#X connect 55 0 7 0;
#X connect 56 0 9 0;
#X connect 57 0 12 0;
#X connect 58 0 17 0;
#X connect 59 0 6 0;
#X connect 60 0 66 0;
#X connect 61 0 51 0;
#X connect 62 0 50 0;
#X connect 63 0 10 0;
#X connect 65 0 55 0;
#X connect 65 1 6 0;
#X connect 65 2 64 0;
#X connect 66 0 59 0;
#X connect 68 0 2 0;
#X connect 68 1 31 0;
#X connect 68 2 57 0;
#X connect 68 3 69 0;
#X connect 68 5 24 0;
#X connect 68 6 77 0;
#X connect 68 7 23 0;
#X connect 68 8 33 0;
#X connect 68 9 54 0;
#X connect 68 10 64 0;
#X connect 69 0 62 0;
#X connect 69 1 21 1;
#X connect 69 1 71 1;
#X connect 69 2 75 0;
#X connect 70 0 71 0;
#X connect 71 0 9 0;
#X connect 72 0 70 0;
#X connect 73 0 72 0;
#X connect 74 0 78 0;
#X connect 75 0 74 1;
#X connect 76 0 74 1;
#X connect 77 0 63 0;
#X connect 77 1 61 0;
#X connect 77 3 74 0;
#X connect 77 4 5 0;
#X connect 78 0 73 0;
#X connect 78 1 76 0;
