#N canvas 148 135 747 398 10;
#X obj 33 27 inlet;
#X obj 55 249 outlet;
#X obj 33 54 route bang;
#X obj 97 77 t a b;
#X obj 233 148 float \$2;
#X text 246 37 inlets takes bang or up to three float arguments \;
missing arguments are replaced with patcher args 1 to 3;
#X text 248 92 sciss 26-mar-06;
#X obj 302 148 float \$3;
#X obj 56 208 pack f f f;
#X obj 55 148 unpack f f f;
#X obj 158 148 float \$1;
#X obj 33 89 t b b;
#X connect 0 0 2 0;
#X connect 2 0 11 0;
#X connect 2 1 3 0;
#X connect 3 0 9 0;
#X connect 3 1 4 0;
#X connect 3 1 7 0;
#X connect 4 0 8 1;
#X connect 7 0 8 2;
#X connect 8 0 1 0;
#X connect 9 0 8 0;
#X connect 9 1 8 1;
#X connect 9 2 8 2;
#X connect 10 0 8 0;
#X connect 11 0 10 0;
#X connect 11 1 4 0;
#X connect 11 1 7 0;
