#N canvas 119 22 984 726 10;
#X obj 52 72 inlet;
#X obj 35 640 outlet;
#X obj 231 627 outlet;
#X obj 367 502 prepend set;
#X obj 367 525 send13 nowhere;
#X msg 261 243 destroy;
#X obj 204 217 t b b b;
#X obj 307 479 prepend send;
#X obj 214 243 t b b;
#X obj 184 296 prepend /free;
#X obj 518 436 prepend /get;
#X obj 688 410 tgl 15 0 empty empty empty 0 -6 0 8 -262144 -1 -1 0
1;
#X obj 651 435 spigot;
#X obj 264 545 spigot;
#X obj 300 522 tgl 15 0 empty empty empty 0 -6 0 8 -262144 -1 -1 0
1;
#X obj 52 530 prepend create;
#X obj 161 521 prepend server;
#X obj 300 409 t a a;
#X msg 130 599 configure;
#X obj 131 574 t b b;
#X obj 160 626 outlet;
#X msg 485 287 list [ /new javax.swing.ButtonGroup ];
#X obj 485 312 prepend /local \$0-group;
#X obj 249 63 print ButtonGroup_doesnt_understand;
#X text 603 73 v0.1 \, sciss 25-apr-06;
#X obj 442 253 t b a b;
#X obj 27 437 symbol \$0-group;
#X obj 27 464 prepend group;
#X obj 186 271 symbol \$0-group;
#X obj 518 409 prepend \$0-group;
#X obj 265 570 print ButtonGroup_snd;
#X obj 651 460 print ButtonGroup_rcv;
#X obj 51 100 route osc set get create destroy server configure;
#X connect 0 0 12 0;
#X connect 0 0 32 0;
#X connect 3 0 4 0;
#X connect 5 0 1 0;
#X connect 6 0 8 0;
#X connect 6 1 5 0;
#X connect 7 0 4 0;
#X connect 7 0 13 0;
#X connect 8 0 28 0;
#X connect 9 0 7 0;
#X connect 10 0 7 0;
#X connect 11 0 12 1;
#X connect 12 0 31 0;
#X connect 13 0 30 0;
#X connect 14 0 13 1;
#X connect 15 0 1 0;
#X connect 16 0 1 0;
#X connect 17 0 16 0;
#X connect 17 1 3 0;
#X connect 18 0 1 0;
#X connect 19 0 18 0;
#X connect 19 1 20 0;
#X connect 21 0 22 0;
#X connect 22 0 7 0;
#X connect 25 0 26 0;
#X connect 25 1 15 0;
#X connect 25 2 21 0;
#X connect 26 0 27 0;
#X connect 27 0 1 0;
#X connect 28 0 9 0;
#X connect 29 0 10 0;
#X connect 32 0 2 0;
#X connect 32 2 29 0;
#X connect 32 3 25 0;
#X connect 32 4 6 0;
#X connect 32 5 17 0;
#X connect 32 6 19 0;
#X connect 32 7 23 0;
