#N canvas 221 319 599 288 10;
#X obj 49 24 inlet;
#X obj 97 24 inlet;
#X obj 48 128 outlet;
#X obj 48 101 pack s s s f f s;
#X obj 166 16 loadbang;
#X obj 48 47 t b f;
#X msg 47 73 [;
#X msg 259 49 symbol java.awt.Dimension;
#X msg 165 49 symbol /new;
#X msg 451 49 symbol ];
#X connect 0 0 5 0;
#X connect 1 0 3 4;
#X connect 3 0 2 0;
#X connect 4 0 8 0;
#X connect 4 0 7 0;
#X connect 4 0 9 0;
#X connect 5 0 6 0;
#X connect 5 1 3 3;
#X connect 6 0 3 0;
#X connect 7 0 3 2;
#X connect 8 0 3 1;
#X connect 9 0 3 5;
