#N canvas 78 32 932 674 10;
#X obj 42 53 inlet;
#X obj 37 618 outlet;
#X obj 201 617 outlet;
#X obj 341 468 prepend set;
#X obj 341 491 send13 nowhere;
#X obj 249 468 prepend send;
#X obj 680 172 tgl 15 0 empty empty empty 0 -6 0 8 -262144 -1 -1 0
1;
#X obj 643 197 spigot;
#X obj 249 523 spigot;
#X obj 285 500 tgl 15 0 empty empty empty 0 -6 0 8 -262144 -1 -1 0
1;
#X obj 37 508 prepend create;
#X obj 143 509 prepend server;
#X obj 311 436 t a a;
#X obj 186 52 print JGUI_doesnt_understand;
#X obj 249 548 print JGUI_snd;
#X obj 643 222 print JGUI_rcv;
#X obj 117 426 prepend destroy;
#X obj 42 80 route osc create destroy set get server configure;
#X text 467 103 v0.1 \, sciss 29-mar-06;
#X obj 135 617 outlet;
#X obj 106 567 t b b;
#X msg 106 591 configure;
#X connect 0 0 7 0;
#X connect 0 0 17 0;
#X connect 3 0 4 0;
#X connect 5 0 4 0;
#X connect 5 0 8 0;
#X connect 6 0 7 1;
#X connect 7 0 15 0;
#X connect 8 0 14 0;
#X connect 9 0 8 1;
#X connect 10 0 1 0;
#X connect 11 0 1 0;
#X connect 12 0 11 0;
#X connect 12 1 3 0;
#X connect 16 0 1 0;
#X connect 17 0 2 0;
#X connect 17 1 10 0;
#X connect 17 2 16 0;
#X connect 17 5 12 0;
#X connect 17 6 20 0;
#X connect 17 7 13 0;
#X connect 20 0 21 0;
#X connect 20 1 19 0;
#X connect 21 0 1 0;
