#N canvas 67 22 964 706 10;
#X obj 14 36 inlet;
#X obj 37 565 outlet;
#X obj 168 565 outlet;
#X obj 341 468 prepend set;
#X obj 341 491 send13 nowhere;
#X msg 273 222 destroy;
#X obj 249 468 prepend send;
#X obj 169 295 prepend /free;
#X obj 575 523 tgl 15 0 empty empty empty 0 -6 0 8 -262144 -1 -1 0
1;
#X obj 538 548 spigot;
#X obj 249 523 spigot;
#X obj 285 500 tgl 15 0 empty empty empty 0 -6 0 8 -262144 -1 -1 0
1;
#X obj 143 509 prepend server;
#X obj 311 436 t a a;
#X text 579 40 required patcher args:;
#X text 578 56 1 = (symbol) logical name;
#X obj 210 266 symbol \$1;
#X text 578 73 2 = (symbol) image file URL;
#X obj 269 19 print JImageIcon_doesnt_understand;
#X msg 480 205 ] ];
#X obj 538 573 print JImageIcon_rcv;
#X obj 249 548 print JImageIcon_snd;
#X msg 197 321 /methodr [ /method \$1 getImage ] flush;
#X obj 514 206 symbol \$2;
#X obj 344 102 route url;
#X obj 300 42 print JImageIcon_set_doesnt_understand;
#X obj 480 231 prepend;
#X obj 481 254 prepend /local \$1 [ /new javax.swing.ImageIcon [ /new
java.net.URL;
#X obj 387 147 tosymbol;
#X obj 345 124 t b a;
#X obj 325 147 spigot;
#X obj 458 180 t b b b;
#X msg 445 205 1;
#X msg 151 219 0;
#X obj 211 193 t b b b b;
#X obj 139 266 symbol \$1;
#X msg 511 342 ] ];
#X obj 545 343 symbol \$2;
#X obj 511 368 prepend;
#X obj 507 307 t b b b;
#X obj 512 393 prepend /set \$1 image [ /methodr [ /method java.awt.Toolkit
getDefaultToolkit ] createImage [ /new java.net.URL;
#X text 578 18 v0.1 \, sciss 29-mar-06;
#X obj 14 68 route osc create destroy set get server configure;
#X obj 78 517 t b b;
#X msg 77 541 configure;
#X obj 107 566 outlet;
#X connect 0 0 9 0;
#X connect 0 0 42 0;
#X connect 3 0 4 0;
#X connect 5 0 1 0;
#X connect 6 0 4 0;
#X connect 6 0 10 0;
#X connect 7 0 6 0;
#X connect 8 0 9 1;
#X connect 9 0 20 0;
#X connect 10 0 21 0;
#X connect 11 0 10 1;
#X connect 12 0 1 0;
#X connect 13 0 12 0;
#X connect 13 1 3 0;
#X connect 16 0 22 0;
#X connect 19 0 26 0;
#X connect 22 0 6 0;
#X connect 23 0 26 1;
#X connect 24 0 29 0;
#X connect 24 1 25 0;
#X connect 26 0 27 0;
#X connect 27 0 6 0;
#X connect 28 0 23 1;
#X connect 28 0 37 1;
#X connect 29 0 30 0;
#X connect 29 1 28 0;
#X connect 30 0 39 0;
#X connect 31 0 32 0;
#X connect 31 1 19 0;
#X connect 31 2 23 0;
#X connect 32 0 30 1;
#X connect 33 0 30 1;
#X connect 34 0 33 0;
#X connect 34 1 35 0;
#X connect 34 2 16 0;
#X connect 34 3 5 0;
#X connect 35 0 7 0;
#X connect 36 0 38 0;
#X connect 37 0 38 1;
#X connect 38 0 40 0;
#X connect 39 0 36 0;
#X connect 39 1 37 0;
#X connect 39 2 16 0;
#X connect 40 0 6 0;
#X connect 42 0 2 0;
#X connect 42 1 31 0;
#X connect 42 2 34 0;
#X connect 42 3 24 0;
#X connect 42 5 13 0;
#X connect 42 6 43 0;
#X connect 42 7 18 0;
#X connect 43 0 44 0;
#X connect 43 1 45 0;
#X connect 44 0 1 0;
