#N canvas 165 204 718 300 10;
#X obj 33 27 inlet;
#X obj 96 230 outlet;
#X obj 96 129 unpack s f;
#X obj 33 54 route bang;
#X obj 97 189 pack s f;
#X obj 97 77 t a b;
#X obj 33 89 t b b;
#X text 246 37 inlets takes bang or up to two arguments (a symbol and
a float) \; missing arguments are replaced with patcher args 1 and
2;
#X text 248 92 sciss 25-mar-06;
#X obj 23 129 symbol \$1;
#X obj 181 125 float \$2;
#X connect 0 0 3 0;
#X connect 2 0 4 0;
#X connect 2 1 4 1;
#X connect 3 0 6 0;
#X connect 3 1 5 0;
#X connect 4 0 1 0;
#X connect 5 0 2 0;
#X connect 5 1 10 0;
#X connect 6 0 9 0;
#X connect 6 1 10 0;
#X connect 9 0 4 0;
#X connect 10 0 4 1;
