#N canvas 70 44 894 408 10;
#X obj 41 27 inlet;
#X obj 41 265 outlet;
#X obj 126 265 outlet;
#X obj 90 27 r \$0-view;
#X obj 213 266 outlet;
#X obj 301 116 prepend set text;
#X obj 301 95 route text columns editable halign;
#X obj 301 137 prepend set columns;
#X obj 301 158 prepend set editable;
#X obj 301 179 prepend set horizontalAlignment;
#X obj 40 66 swing.prView \$0 javax.swing.JTextField;
#X obj 550 95 print JTextField_set_doesnt_understand;
#X obj 248 221 swing.prActionResponder \$0 text;
#X text 383 44 v0.1 \, sciss 25-apr-06;
#X connect 0 0 10 0;
#X connect 3 0 10 0;
#X connect 5 0 10 1;
#X connect 6 0 5 0;
#X connect 6 1 7 0;
#X connect 6 2 8 0;
#X connect 6 3 9 0;
#X connect 6 4 11 0;
#X connect 7 0 10 1;
#X connect 8 0 10 1;
#X connect 9 0 10 1;
#X connect 10 0 1 0;
#X connect 10 0 12 0;
#X connect 10 1 2 0;
#X connect 10 2 4 0;
#X connect 10 3 6 0;
#X connect 12 0 10 1;
