#N canvas 80 165 741 375 10;
#X obj 41 27 inlet;
#X obj 41 265 outlet;
#X obj 149 265 outlet;
#X obj 90 27 r \$0-view;
#X obj 257 265 outlet;
#X obj 365 96 print JCheckBox_set_doesnt_understand;
#X obj 40 66 swing.prAbstractButton \$0 javax.swing.JCheckBox;
#X obj 316 179 swing.prActionResponder \$0 selected;
#X text 383 44 v0.1 \, sciss 25-apr-06;
#X connect 0 0 6 0;
#X connect 3 0 6 0;
#X connect 6 0 1 0;
#X connect 6 0 7 0;
#X connect 6 1 2 0;
#X connect 6 2 4 0;
#X connect 6 3 5 0;
#X connect 7 0 6 1;
