#N canvas 370 372 417 230 10;
#X obj 24 8 inlet;
#X obj 23 140 outlet;
#X obj 141 28 loadbang;
#X msg 22 85 [;
#X msg 236 61 symbol ];
#X msg 140 61 symbol /ref;
#X obj 23 113 pack s s s s;
#X obj 23 33 tosymbol;
#X obj 23 60 t b s;
#X text 149 177 v0.1 \, sciss 26-mar-06;
#X connect 0 0 7 0;
#X connect 2 0 5 0;
#X connect 2 0 4 0;
#X connect 3 0 6 0;
#X connect 4 0 6 3;
#X connect 5 0 6 1;
#X connect 6 0 1 0;
#X connect 7 0 8 0;
#X connect 8 0 3 0;
#X connect 8 1 6 2;
