#N canvas 56 31 976 718 10;
#X obj 37 50 inlet;
#X obj 38 603 outlet;
#X obj 216 605 outlet;
#X obj 86 50 r \$0-frame;
#X obj 318 11 print JFrame_doesnt_understand;
#X obj 341 468 prepend set;
#X obj 341 491 send13 nowhere;
#X msg 246 221 destroy;
#X obj 224 196 t b b b;
#X obj 249 468 prepend send;
#X msg 276 272 dispose;
#X obj 199 221 t b b;
#X obj 356 32 print JFrame_set_doesnt_understand;
#X obj 25 390 prepend \$0-frame;
#X obj 25 419 prepend /set;
#X obj 446 157 prepend title;
#X msg 314 192 0;
#X obj 207 144 prepend visible;
#X obj 270 390 prepend \$0-frame;
#X obj 270 414 prepend /method;
#X obj 171 249 symbol \$0-frame;
#X obj 169 274 prepend /free;
#X obj 324 155 prepend enabled;
#X obj 503 390 prepend \$0-frame;
#X obj 503 414 prepend /get;
#X msg 470 265 [ /new javax.swing.JFrame ];
#X obj 673 388 tgl 15 0 empty empty empty 0 -6 0 8 -262144 -1 -1 0
1;
#X obj 636 413 spigot;
#X obj 636 438 print JFrame_rcv;
#X obj 249 523 spigot;
#X obj 285 500 tgl 15 0 empty empty empty 0 -6 0 8 -262144 -1 -1 0
1;
#X obj 249 548 print JFrame_snd;
#X obj 37 508 prepend create;
#X obj 143 509 prepend server;
#X obj 311 436 t a a;
#X obj 37 484 symbol \$0-view;
#X obj 426 232 t b b b;
#X msg 684 264 getContentPane ];
#X obj 18 136 prepend setSize;
#X obj 16 162 prepend setLocation;
#X obj 17 189 prepend setBounds;
#X obj 89 107 route size location bounds visible enabled title layout
;
#X obj 504 107 route flow;
#X obj 380 53 print JFrame_set_layout_doesnt_understand;
#X obj 149 389 prepend \$0-view;
#X obj 614 106 t b a;
#X obj 613 173 prepend layout [ /new java.awt.FlowLayout;
#X obj 613 150 prepend;
#X msg 613 128 ];
#X msg 330 342 pack;
#X obj 388 390 prepend \$0-view;
#X msg 493 516 /methodr [ /method \$1 getRootPane ] revalidate;
#X obj 493 492 symbol \$0-frame;
#X msg 369 342 toFront;
#X msg 429 342 toBack;
#X obj 462 463 t b b;
#X msg 484 342 repaint;
#X obj 36 72 route osc set get add remove create destroy server pack
refresh front back configure;
#X text 715 24 v0.1 \, sciss 29-mar-06;
#X obj 653 290 prepend /local \$0-view [ /method \$0-frame;
#X obj 470 290 prepend /local \$0-frame;
#X msg 115 577 configure;
#X obj 116 552 t b b;
#X obj 145 604 outlet;
#X obj 614 86 swing.prDefArgsFFF 1 5 5;
#X connect 0 0 27 0;
#X connect 0 0 57 0;
#X connect 3 0 27 0;
#X connect 3 0 57 0;
#X connect 5 0 6 0;
#X connect 7 0 1 0;
#X connect 8 0 11 0;
#X connect 8 1 7 0;
#X connect 8 2 16 0;
#X connect 9 0 6 0;
#X connect 9 0 29 0;
#X connect 10 0 18 0;
#X connect 11 0 20 0;
#X connect 11 1 10 0;
#X connect 13 0 14 0;
#X connect 14 0 9 0;
#X connect 15 0 13 0;
#X connect 16 0 17 0;
#X connect 17 0 13 0;
#X connect 18 0 19 0;
#X connect 19 0 9 0;
#X connect 20 0 21 0;
#X connect 21 0 9 0;
#X connect 22 0 13 0;
#X connect 23 0 24 0;
#X connect 24 0 9 0;
#X connect 25 0 60 0;
#X connect 26 0 27 1;
#X connect 27 0 28 0;
#X connect 29 0 31 0;
#X connect 30 0 29 1;
#X connect 32 0 1 0;
#X connect 33 0 1 0;
#X connect 34 0 33 0;
#X connect 34 1 5 0;
#X connect 35 0 32 0;
#X connect 36 0 35 0;
#X connect 36 1 37 0;
#X connect 36 2 25 0;
#X connect 37 0 59 0;
#X connect 38 0 18 0;
#X connect 39 0 18 0;
#X connect 40 0 18 0;
#X connect 41 0 38 0;
#X connect 41 1 39 0;
#X connect 41 2 40 0;
#X connect 41 3 17 0;
#X connect 41 4 22 0;
#X connect 41 5 15 0;
#X connect 41 6 42 0;
#X connect 41 7 12 0;
#X connect 42 0 64 0;
#X connect 42 1 43 0;
#X connect 44 0 14 0;
#X connect 45 0 48 0;
#X connect 45 1 47 1;
#X connect 46 0 44 0;
#X connect 47 0 46 0;
#X connect 48 0 47 0;
#X connect 49 0 18 0;
#X connect 50 0 19 0;
#X connect 51 0 9 0;
#X connect 52 0 51 0;
#X connect 53 0 18 0;
#X connect 54 0 18 0;
#X connect 55 0 56 0;
#X connect 55 1 52 0;
#X connect 56 0 18 0;
#X connect 57 0 2 0;
#X connect 57 1 41 0;
#X connect 57 2 23 0;
#X connect 57 5 36 0;
#X connect 57 6 8 0;
#X connect 57 7 34 0;
#X connect 57 8 49 0;
#X connect 57 9 55 0;
#X connect 57 10 53 0;
#X connect 57 11 54 0;
#X connect 57 12 62 0;
#X connect 57 13 4 0;
#X connect 59 0 9 0;
#X connect 60 0 9 0;
#X connect 61 0 1 0;
#X connect 62 0 61 0;
#X connect 62 1 63 0;
#X connect 64 0 45 0;
