#N canvas 300 22 813 682 10;
#X obj 41 27 inlet;
#X obj 41 265 outlet;
#X obj 81 287 outlet;
#X obj 121 307 outlet;
#X obj 207 172 swing.prMakeRef;
#X obj 207 151 prepend set text;
#X obj 207 193 prepend set icon;
#X obj 207 214 prepend set horizontalAlignment;
#X obj 207 235 prepend set verticalAlignment;
#X obj 207 256 prepend set horizontalTextPosition;
#X obj 207 277 prepend set verticalTextPosition;
#X obj 208 100 route text icon halign valign htextpos vtextpos iconTextGap
disabledIcon disabledSelectedIcon pressedIcon overIcon overSelectedIcon
selected;
#X obj 207 298 prepend set iconTextGap;
#X obj 207 340 prepend set disabledIcon;
#X obj 207 319 swing.prMakeRef;
#X obj 207 361 swing.prMakeRef;
#X obj 207 403 swing.prMakeRef;
#X obj 207 445 swing.prMakeRef;
#X obj 207 487 swing.prMakeRef;
#X obj 207 382 prepend set disabledSelectedIcon;
#X obj 207 424 prepend set pressedIcon;
#X obj 207 466 prepend set rolloverIcon;
#X obj 452 446 t b a;
#X obj 207 508 prepend set rolloverSelectedIcon;
#X obj 496 446 t b a;
#X msg 207 529 set rolloverEnabled 1;
#X obj 207 551 prepend set selected;
#X obj 40 66 swing.prView \$1 \$2;
#X obj 616 313 outlet;
#X obj 161 27 inlet;
#X text 342 33 v0.1 \, sciss 25-apr-06;
#X connect 0 0 27 0;
#X connect 4 0 6 0;
#X connect 5 0 27 1;
#X connect 7 0 27 1;
#X connect 8 0 27 1;
#X connect 9 0 27 1;
#X connect 10 0 27 1;
#X connect 11 0 5 0;
#X connect 11 1 4 0;
#X connect 11 2 7 0;
#X connect 11 3 8 0;
#X connect 11 4 9 0;
#X connect 11 5 10 0;
#X connect 11 6 12 0;
#X connect 11 7 14 0;
#X connect 11 8 15 0;
#X connect 11 9 16 0;
#X connect 11 10 22 0;
#X connect 11 11 24 0;
#X connect 11 12 26 0;
#X connect 11 13 28 0;
#X connect 12 0 27 1;
#X connect 13 0 27 1;
#X connect 14 0 13 0;
#X connect 15 0 19 0;
#X connect 16 0 20 0;
#X connect 17 0 21 0;
#X connect 18 0 23 0;
#X connect 19 0 27 1;
#X connect 20 0 27 1;
#X connect 21 0 27 1;
#X connect 22 0 25 0;
#X connect 22 1 17 0;
#X connect 23 0 27 1;
#X connect 24 0 25 0;
#X connect 24 1 18 0;
#X connect 25 0 27 1;
#X connect 26 0 27 1;
#X connect 27 0 1 0;
#X connect 27 1 2 0;
#X connect 27 2 3 0;
#X connect 27 3 11 0;
#X connect 29 0 27 1;
