#N canvas 235 22 734 637 10;
#X obj 18 262 sendOSC;
#X msg 123 109 disconnect;
#X obj 19 222 prepend send;
#X obj 301 414 route swing;
#X obj 301 354 dumpOSC \$1;
#X msg 69 160 /set swing replyPort \$1;
#X obj 19 13 inlet;
#X obj 17 555 outlet;
#X obj 300 551 outlet;
#X obj 70 84 prepend connect;
#X obj 173 129 prepend /dumpOSC;
#X obj 69 136 int \$1;
#X obj 278 82 prepend /get swing;
#X obj 348 38 print SwingOSC_doesnt_understand;
#X obj 66 13 r \$0-swing;
#X obj 19 38 route send connect disconnect dumpOSC set get;
#X obj 403 565 send13 nowhere;
#X obj 373 439 zl slice 1;
#X obj 374 460 t b a;
#X obj 403 482 prepend set;
#X obj 413 539 prepend osc;
#X text 401 134 required patcher args:;
#X text 401 151 1 = (int) client UDP port;
#X obj 359 195 tgl 15 0 empty empty empty 0 -6 0 8 -262144 -1 -1 0
1;
#X obj 322 220 spigot;
#X obj 322 245 print SwingOSC_rcv;
#X obj 69 109 t b b a;
#X obj 70 62 swing.prDefArgsSF localhost 57111;
#X obj 16 500 symbol \$0-swing;
#X obj 17 527 prepend server;
#X obj 177 195 tgl 15 0 empty empty empty 0 -6 0 8 -262144 -1 -1 0
1;
#X obj 140 220 spigot;
#X obj 20 190 t a;
#X obj 140 245 print SwingOSC_send;
#X obj 413 515 prepend;
#X obj 302 387 route /set /action;
#X text 401 108 v0.1 \, sciss 25-apr-06;
#X connect 1 0 0 0;
#X connect 2 0 0 0;
#X connect 3 0 8 0;
#X connect 3 1 17 0;
#X connect 4 0 24 0;
#X connect 4 0 35 0;
#X connect 5 0 32 0;
#X connect 6 0 15 0;
#X connect 9 0 26 0;
#X connect 10 0 32 0;
#X connect 11 0 5 0;
#X connect 12 0 32 0;
#X connect 14 0 15 0;
#X connect 15 0 32 0;
#X connect 15 1 27 0;
#X connect 15 2 1 0;
#X connect 15 3 10 0;
#X connect 15 5 12 0;
#X connect 15 6 13 0;
#X connect 17 0 18 0;
#X connect 17 1 34 1;
#X connect 18 0 34 0;
#X connect 18 1 19 0;
#X connect 19 0 16 0;
#X connect 20 0 16 0;
#X connect 23 0 24 1;
#X connect 24 0 25 0;
#X connect 26 0 28 0;
#X connect 26 1 11 0;
#X connect 26 2 0 0;
#X connect 27 0 9 0;
#X connect 28 0 29 0;
#X connect 29 0 7 0;
#X connect 30 0 31 1;
#X connect 31 0 33 0;
#X connect 32 0 31 0;
#X connect 32 0 2 0;
#X connect 34 0 20 0;
#X connect 35 0 3 0;
#X connect 35 1 17 0;
