#N canvas 74 85 827 413 10;
#X obj 41 27 inlet;
#X obj 41 265 outlet;
#X obj 116 265 outlet;
#X obj 90 27 r \$0-view;
#X obj 196 265 outlet;
#X obj 272 156 swing.prMakeRef;
#X obj 272 134 prepend set text;
#X obj 272 178 prepend set icon;
#X obj 272 200 prepend set horizontalAlignment;
#X obj 272 222 prepend set verticalAlignment;
#X obj 272 244 prepend set horizontalTextPosition;
#X obj 272 266 prepend set verticalTextPosition;
#X obj 491 73 print JLabel_set_doesnt_understand;
#X obj 40 66 swing.prView \$0 javax.swing.JLabel;
#X obj 272 97 route text icon halign valign htextpos vtextpos iconTextGap
disabledIcon;
#X text 383 44 v0.1 \, sciss 30-mar-06;
#X obj 272 288 prepend set iconTextGap;
#X obj 272 310 swing.prMakeRef;
#X obj 272 332 prepend set disabledIcon;
#X connect 0 0 13 0;
#X connect 3 0 13 0;
#X connect 5 0 7 0;
#X connect 6 0 13 1;
#X connect 7 0 13 1;
#X connect 8 0 13 1;
#X connect 9 0 13 1;
#X connect 10 0 13 1;
#X connect 11 0 13 1;
#X connect 13 0 1 0;
#X connect 13 1 2 0;
#X connect 13 2 4 0;
#X connect 13 3 14 0;
#X connect 14 0 6 0;
#X connect 14 1 5 0;
#X connect 14 2 8 0;
#X connect 14 3 9 0;
#X connect 14 4 10 0;
#X connect 14 5 11 0;
#X connect 14 6 16 0;
#X connect 14 7 17 0;
#X connect 14 8 12 0;
#X connect 16 0 13 1;
#X connect 17 0 18 0;
#X connect 18 0 13 1;
