#N canvas 604 26 662 561 10;
#X obj 30 317 sendOSC;
#X obj 357 136 print;
#X msg 27 72 disconnect;
#X text 393 30 RECEIVE OSC from Processing;
#X floatatom 394 163 5 0 0 0 - - -;
#X obj 394 248 cycle~;
#X obj 394 322 dac~;
#X obj 394 287 *~ 0.5;
#X floatatom 444 271 5 0 1 0 - - -;
#X text 424 220 freq;
#X floatatom 451 159 5 0 0 0 - - -;
#X floatatom 394 229 5 0 0 0 - - -;
#X text 446 252 amp - hold down SHIFT for floats;
#X obj 394 135 unpack i i;
#X text 474 134 expecting two ints;
#X obj 394 200 * 3;
#X obj 394 100 OSCroute /status.reply;
#X msg 40 127 send /n_set 1000 freq 700;
#X msg 48 152 send /n_set 1000 freq 400;
#X msg 56 226 send /s_new default 1000 1 0 freq 330 amp 0.5 out 0;
#X msg 24 50 connect 127.0.0.1 57110;
#X msg 67 199 send /n_set 1000 amp 0.21;
#X msg 56 175 send /n_set 1000 amp 0.6;
#X msg 69 251 send /n_free 1000;
#X obj 394 65 dumpOSC 57110;
#X msg 236 50 send /notify 1;
#X msg 237 72 send dumpOSC 1;
#X text 45 14 SEND OSC to SuperCollider Server;
#X connect 2 0 0 0;
#X connect 4 0 15 0;
#X connect 5 0 7 0;
#X connect 7 0 6 0;
#X connect 7 0 6 1;
#X connect 8 0 7 1;
#X connect 11 0 5 0;
#X connect 13 0 4 0;
#X connect 13 1 10 0;
#X connect 15 0 11 0;
#X connect 16 0 1 0;
#X connect 17 0 0 0;
#X connect 18 0 0 0;
#X connect 19 0 0 0;
#X connect 20 0 0 0;
#X connect 21 0 0 0;
#X connect 22 0 0 0;
#X connect 23 0 0 0;
#X connect 24 0 16 0;
#X connect 25 0 0 0;
#X connect 26 0 0 0;
